<svg xmlns="http://www.w3.org/2000/svg" viewBox="0 0 1080 1350" width="1080" height="1350" role="img" aria-labelledby="t">
  <title id="t">חזית של בניין עם דלת מוארת, ולצידה קיר שנפתח אל חדר פנימי עם צמתים מחוברים, כרטיסי משתמש, מנעול וערימת נתונים</title>
  <defs>
    <linearGradient id="sky" x1="0" y1="0" x2="0" y2="1"><stop offset="0" stop-color="#1c1620"/><stop offset="0.62" stop-color="#2a2230"/><stop offset="1" stop-color="#3a3040"/></linearGradient>
    <radialGradient id="horizon" cx="50%" cy="62%" r="55%"><stop offset="0" stop-color="#d6a46c" stop-opacity="0.42"/><stop offset="0.5" stop-color="#b8582f" stop-opacity="0.14"/><stop offset="1" stop-color="#b8582f" stop-opacity="0"/></radialGradient>
    <radialGradient id="sun" cx="50%" cy="50%" r="50%"><stop offset="0" stop-color="#ecd2ab"/><stop offset="0.55" stop-color="#d6a46c"/><stop offset="1" stop-color="#c9744f"/></radialGradient>
    <radialGradient id="sunGlow" cx="50%" cy="50%" r="50%"><stop offset="0" stop-color="#d6a46c" stop-opacity="0.55"/><stop offset="1" stop-color="#d6a46c" stop-opacity="0"/></radialGradient>
    <linearGradient id="ground" x1="0" y1="0" x2="0" y2="1"><stop offset="0" stop-color="#d8cab5"/><stop offset="1" stop-color="#f1eadf"/></linearGradient>
    <linearGradient id="doorLight" x1="0" y1="0" x2="0" y2="1"><stop offset="0" stop-color="#ecd2ab"/><stop offset="0.5" stop-color="#d6a46c"/><stop offset="1" stop-color="#b8582f"/></linearGradient>
    <linearGradient id="wall" x1="0" y1="0" x2="1" y2="1"><stop offset="0" stop-color="#3a3040"/><stop offset="1" stop-color="#241e23"/></linearGradient>
    <linearGradient id="stoneA" x1="0" y1="0" x2="1" y2="0"><stop offset="0" stop-color="#2c2430"/><stop offset="0.7" stop-color="#3a3040"/><stop offset="1" stop-color="#5a4550"/></linearGradient>
    <linearGradient id="stoneB" x1="0" y1="0" x2="1" y2="0"><stop offset="0" stop-color="#241e23"/><stop offset="0.7" stop-color="#332a36"/><stop offset="1" stop-color="#6a4a44"/></linearGradient>
    <linearGradient id="card" x1="0" y1="0" x2="0" y2="1"><stop offset="0" stop-color="#fbf7f0"/><stop offset="1" stop-color="#e9dfcf"/></linearGradient>
    <filter id="shadow" x="-20%" y="-20%" width="140%" height="160%"><feDropShadow dx="0" dy="18" stdDeviation="16" flood-color="#100c12" flood-opacity="0.5"/></filter>
    <filter id="lift" x="-40%" y="-40%" width="180%" height="190%"><feDropShadow dx="0" dy="14" stdDeviation="10" flood-color="#100c12" flood-opacity="0.45"/></filter>
    <filter id="glow" x="-50%" y="-50%" width="200%" height="200%"><feGaussianBlur stdDeviation="14"/></filter>
    <clipPath id="frame"><rect width="1080" height="1350"/></clipPath>
    <linearGradient id="room" x1="0" y1="0" x2="0" y2="1"><stop offset="0" stop-color="#120d14"/><stop offset="1" stop-color="#231b25"/></linearGradient>
    <radialGradient id="roomGlow" cx="50%" cy="55%" r="60%"><stop offset="0" stop-color="#d6a46c" stop-opacity="0.34"/><stop offset="0.6" stop-color="#b8582f" stop-opacity="0.10"/><stop offset="1" stop-color="#b8582f" stop-opacity="0"/></radialGradient>
    <linearGradient id="panel" x1="0" y1="0" x2="1" y2="0"><stop offset="0" stop-color="#4a3a48"/><stop offset="1" stop-color="#2a2230"/></linearGradient>
  </defs>
  <g clip-path="url(#frame)">
    <rect width="1080" height="1350" fill="url(#sky)"/>
    <rect width="1080" height="1350" fill="url(#horizon)"/>
    <g fill="#f1eadf" fill-opacity="0.5"><circle cx="120" cy="120" r="1.6"/><circle cx="330" cy="80" r="1.2"/><circle cx="520" cy="170" r="1.4"/><circle cx="700" cy="90" r="1.2"/><circle cx="980" cy="140" r="1.6"/><circle cx="220" cy="300" r="1"/><circle cx="90" cy="520" r="1.2"/></g>
    <circle cx="190" cy="230" r="128" fill="url(#sunGlow)"/>
    <circle cx="190" cy="230" r="64" fill="url(#sun)"/>
    <circle cx="190" cy="230" r="90" fill="none" stroke="#d6a46c" stroke-opacity="0.28"/>
    <circle cx="190" cy="230" r="115" fill="none" stroke="#d6a46c" stroke-opacity="0.14" stroke-dasharray="3 10"/>
    <path d="M -100 900 L 1180 900 L 1180 1350 L -100 1350 Z" fill="url(#ground)"/>
    <path d="M -100 900 L 1180 900 L 1180 914 L -100 914 Z" fill="#c9744f" fill-opacity="0.25"/>
    <g filter="url(#shadow)"><rect x="300" y="330" width="650" height="590" rx="18" fill="url(#wall)"/></g>
    <rect x="330" y="360" width="590" height="540" rx="10" fill="url(#room)"/>
    <rect x="330" y="360" width="590" height="540" rx="10" fill="url(#roomGlow)"/>
    <rect x="336" y="366" width="578" height="3" rx="1.5" fill="#d6a46c" fill-opacity="0.35"/>
    <g filter="url(#lift)"><path d="M 950 338 L 1042 394 L 1042 956 L 950 912 Z" fill="url(#panel)"/></g>
    <path d="M 964 360 L 1028 400 L 1028 940 L 964 904 Z" fill="none" stroke="#d6a46c" stroke-opacity="0.22" stroke-width="2"/>
    <circle cx="1020" cy="655" r="7" fill="#d6a46c"/>
    <path d="M 330 900 L 920 900" stroke="#d6a46c" stroke-opacity="0.25" stroke-width="2"/>
    <path d="M 440 480 L 612 426" stroke="#d6a46c" stroke-opacity="0.55" stroke-width="2.5" stroke-dasharray="2 9" stroke-linecap="round"/>
    <path d="M 612 426 L 792 500" stroke="#d6a46c" stroke-opacity="0.55" stroke-width="2.5" stroke-dasharray="2 9" stroke-linecap="round"/>
    <path d="M 792 500 L 632 612" stroke="#d6a46c" stroke-opacity="0.55" stroke-width="2.5" stroke-dasharray="2 9" stroke-linecap="round"/>
    <path d="M 632 612 L 462 650" stroke="#d6a46c" stroke-opacity="0.55" stroke-width="2.5" stroke-dasharray="2 9" stroke-linecap="round"/>
    <path d="M 462 650 L 440 480" stroke="#d6a46c" stroke-opacity="0.55" stroke-width="2.5" stroke-dasharray="2 9" stroke-linecap="round"/>
    <path d="M 612 426 L 632 612" stroke="#d6a46c" stroke-opacity="0.55" stroke-width="2.5" stroke-dasharray="2 9" stroke-linecap="round"/>
    <path d="M 792 500 L 858 700" stroke="#d6a46c" stroke-opacity="0.55" stroke-width="2.5" stroke-dasharray="2 9" stroke-linecap="round"/>
    <circle cx="440" cy="480" r="23" fill="#d6a46c" fill-opacity="0.18"/><circle cx="440" cy="480" r="13" fill="#2a2230" stroke="#d6a46c" stroke-width="3"/><circle cx="440" cy="480" r="5" fill="#ecd2ab"/><circle cx="612" cy="426" r="23" fill="#d6a46c" fill-opacity="0.18"/><circle cx="612" cy="426" r="13" fill="#2a2230" stroke="#d6a46c" stroke-width="3"/><circle cx="612" cy="426" r="5" fill="#ecd2ab"/><circle cx="792" cy="500" r="23" fill="#d6a46c" fill-opacity="0.18"/><circle cx="792" cy="500" r="13" fill="#2a2230" stroke="#d6a46c" stroke-width="3"/><circle cx="792" cy="500" r="5" fill="#ecd2ab"/><circle cx="632" cy="612" r="23" fill="#d6a46c" fill-opacity="0.18"/><circle cx="632" cy="612" r="13" fill="#2a2230" stroke="#d6a46c" stroke-width="3"/><circle cx="632" cy="612" r="5" fill="#ecd2ab"/><circle cx="462" cy="650" r="23" fill="#d6a46c" fill-opacity="0.18"/><circle cx="462" cy="650" r="13" fill="#2a2230" stroke="#d6a46c" stroke-width="3"/><circle cx="462" cy="650" r="5" fill="#ecd2ab"/>
    <g filter="url(#lift)"><path d="M 796 820 v 46 a 64 17 0 0 0 128 0 v -46" fill="#2a2230" stroke="#d6a46c" stroke-width="2.5"/><ellipse cx="860" cy="820" rx="64" ry="17" fill="#3a3040" stroke="#d6a46c" stroke-width="2.5"/><circle cx="906" cy="860" r="4" fill="#ecd2ab"/><rect x="810" y="856" width="38" height="5" rx="2.5" fill="#d6a46c" fill-opacity="0.5"/><path d="M 796 774 v 46 a 64 17 0 0 0 128 0 v -46" fill="#2a2230" stroke="#d6a46c" stroke-width="2.5"/><ellipse cx="860" cy="774" rx="64" ry="17" fill="#3a3040" stroke="#d6a46c" stroke-width="2.5"/><circle cx="906" cy="814" r="4" fill="#ecd2ab"/><rect x="810" y="810" width="38" height="5" rx="2.5" fill="#d6a46c" fill-opacity="0.5"/><path d="M 796 728 v 46 a 64 17 0 0 0 128 0 v -46" fill="#2a2230" stroke="#d6a46c" stroke-width="2.5"/><ellipse cx="860" cy="728" rx="64" ry="17" fill="#3a3040" stroke="#d6a46c" stroke-width="2.5"/><circle cx="906" cy="768" r="4" fill="#ecd2ab"/><rect x="810" y="764" width="38" height="5" rx="2.5" fill="#d6a46c" fill-opacity="0.5"/></g>
    <ellipse cx="860" cy="728" rx="90" ry="27" fill="#d6a46c" fill-opacity="0.12" filter="url(#glow)"/>
    <g transform="rotate(-3 432.0 801.0)" filter="url(#lift)">
      <rect x="368" y="764" width="128" height="74" rx="12" fill="url(#card)"/>
      <circle cx="472" cy="801.0" r="14" fill="#c9744f"/><circle cx="472" cy="797.0" r="5.5" fill="#fbf7f0"/><path d="M 462 811.0 a 10 8 0 0 1 20 0 z" fill="#fbf7f0"/>
      <rect x="382" y="784" width="66" height="7" rx="3.5" fill="#3a3040" fill-opacity="0.75"/>
      <rect x="382" y="800" width="46" height="7" rx="3.5" fill="#3a3040" fill-opacity="0.35"/>
    </g>
    <g transform="rotate(3 696.0 759.0)" filter="url(#lift)">
      <rect x="632" y="722" width="128" height="74" rx="12" fill="url(#card)"/>
      <circle cx="736" cy="759.0" r="14" fill="#c9744f"/><circle cx="736" cy="755.0" r="5.5" fill="#fbf7f0"/><path d="M 726 769.0 a 10 8 0 0 1 20 0 z" fill="#fbf7f0"/>
      <rect x="646" y="742" width="66" height="7" rx="3.5" fill="#3a3040" fill-opacity="0.75"/>
      <rect x="646" y="758" width="46" height="7" rx="3.5" fill="#3a3040" fill-opacity="0.35"/>
    </g>
    <g filter="url(#lift)"><path d="M 627.0 716 v -12.0 a 13.0 13.0 0 0 1 26.0 0 v 12.0" fill="none" stroke="#d6a46c" stroke-width="5.0"/>
      <rect x="619.0" y="714.0" width="42.0" height="34.0" rx="7.0" fill="#d6a46c"/><circle cx="640" cy="728.0" r="5.0" fill="#2a2230"/><rect x="638.0" y="729.0" width="4.0" height="10.0" rx="2.0" fill="#2a2230"/></g>
    <g filter="url(#shadow)"><path d="M 100.0 900 v -220.0 a 120.0 120.0 0 0 1 240.0 0 v 220.0 z" fill="url(#wall)"/></g><path d="M 174.4 900 v -178.8 a 45.6 45.6 0 0 1 91.2 0 v 178.8 z" fill="url(#doorLight)"/><g fill="#ecd2ab" fill-opacity="0.85"><rect x="128.8" y="689.2" width="21.6" height="34.6" rx="10.8"/><rect x="289.6" y="689.2" width="21.6" height="34.6" rx="10.8"/></g>
    <path d="M 174 900 v -156 a 46 46 0 0 1 92 0 v 156 z" fill="#ecd2ab" fill-opacity="0.35" filter="url(#glow)"/>
    <path d="M 270 650 C 320 570, 370 480, 424 480" fill="none" stroke="#ecd2ab" stroke-opacity="0.75" stroke-width="3" stroke-dasharray="3 12" stroke-linecap="round"/>
    <path d="M 540 1180 C 500 1080, 300 1000, 230 914" fill="none" stroke="#fbf7f0" stroke-width="40" stroke-linecap="round"/>
    <path d="M 540 1180 C 500 1080, 300 1000, 230 914" fill="none" stroke="#b8582f" stroke-opacity="0.6" stroke-width="3" stroke-dasharray="2 14" stroke-linecap="round"/>
    <ellipse cx="540" cy="1214.0" rx="150.0" ry="34.0" fill="#2a2230" fill-opacity="0.12"/>
    <circle cx="540" cy="1190" r="60.0" fill="#b8582f"/>
    <circle cx="540" cy="1190" r="60.0" fill="none" stroke="#d6a46c" stroke-width="3" stroke-opacity="0.9"/>
    <circle cx="540" cy="1190" r="84.0" fill="none" stroke="#d6a46c" stroke-opacity="0.5" stroke-width="2"/>
    <circle cx="540" cy="1190" r="108.0" fill="none" stroke="#d6a46c" stroke-opacity="0.22" stroke-dasharray="3 10"/>
    <circle cx="540" cy="1190" r="18.0" fill="#f1eadf"/>
    <circle cx="540" cy="1190" r="8.0" fill="#2a2230"/>
  </g>
</svg>
