<svg xmlns="http://www.w3.org/2000/svg" viewBox="0 0 1080 1350" width="1080" height="1350" role="img" aria-labelledby="t">
  <title id="t">שישה שערים מוארים בשורה, מחוברים בשביל אחד, כשהשער הראשון גדול משאר השערים</title>
  <defs>
    <linearGradient id="sky" x1="0" y1="0" x2="0" y2="1"><stop offset="0" stop-color="#1c1620"/><stop offset="0.62" stop-color="#2a2230"/><stop offset="1" stop-color="#3a3040"/></linearGradient>
    <radialGradient id="horizon" cx="50%" cy="60%" r="55%"><stop offset="0" stop-color="#d6a46c" stop-opacity="0.42"/><stop offset="0.5" stop-color="#b8582f" stop-opacity="0.14"/><stop offset="1" stop-color="#b8582f" stop-opacity="0"/></radialGradient>
    <radialGradient id="sun" cx="50%" cy="50%" r="50%"><stop offset="0" stop-color="#ecd2ab"/><stop offset="0.55" stop-color="#d6a46c"/><stop offset="1" stop-color="#c9744f"/></radialGradient>
    <radialGradient id="sunGlow" cx="50%" cy="50%" r="50%"><stop offset="0" stop-color="#d6a46c" stop-opacity="0.55"/><stop offset="1" stop-color="#d6a46c" stop-opacity="0"/></radialGradient>
    <linearGradient id="ground" x1="0" y1="0" x2="0" y2="1"><stop offset="0" stop-color="#d8cab5"/><stop offset="1" stop-color="#f1eadf"/></linearGradient>
    <linearGradient id="doorLight" x1="0" y1="0" x2="0" y2="1"><stop offset="0" stop-color="#ecd2ab"/><stop offset="0.5" stop-color="#d6a46c"/><stop offset="1" stop-color="#b8582f"/></linearGradient>
    <linearGradient id="doorLightSoft" x1="0" y1="0" x2="0" y2="1"><stop offset="0" stop-color="#ecd2ab" stop-opacity="0.9"/><stop offset="1" stop-color="#c9744f" stop-opacity="0.9"/></linearGradient>
    <linearGradient id="wall" x1="0" y1="0" x2="1" y2="1"><stop offset="0" stop-color="#3a3040"/><stop offset="1" stop-color="#241e23"/></linearGradient>
    <linearGradient id="stoneA" x1="0" y1="0" x2="1" y2="0"><stop offset="0" stop-color="#2c2430"/><stop offset="0.7" stop-color="#3a3040"/><stop offset="1" stop-color="#5a4550"/></linearGradient>
    <linearGradient id="stoneB" x1="0" y1="0" x2="1" y2="0"><stop offset="0" stop-color="#241e23"/><stop offset="0.7" stop-color="#332a36"/><stop offset="1" stop-color="#6a4a44"/></linearGradient>
    <linearGradient id="coinFace" x1="0" y1="0" x2="1" y2="1"><stop offset="0" stop-color="#ecd2ab"/><stop offset="0.5" stop-color="#d6a46c"/><stop offset="1" stop-color="#b8582f"/></linearGradient>
    <linearGradient id="card" x1="0" y1="0" x2="0" y2="1"><stop offset="0" stop-color="#fbf7f0"/><stop offset="1" stop-color="#e9dfcf"/></linearGradient>
    <filter id="shadow" x="-20%" y="-20%" width="140%" height="160%"><feDropShadow dx="0" dy="18" stdDeviation="16" flood-color="#100c12" flood-opacity="0.5"/></filter>
    <filter id="lift" x="-40%" y="-40%" width="180%" height="190%"><feDropShadow dx="0" dy="14" stdDeviation="10" flood-color="#100c12" flood-opacity="0.45"/></filter>
    <filter id="glow" x="-50%" y="-50%" width="200%" height="200%"><feGaussianBlur stdDeviation="14"/></filter>
    <clipPath id="frame"><rect width="1080" height="1350"/></clipPath>
  </defs>
  <g clip-path="url(#frame)">
    <rect width="1080" height="1350" fill="url(#sky)"/>
    <rect width="1080" height="1350" fill="url(#horizon)"/>
    <g fill="#f1eadf" fill-opacity="0.5"><circle cx="120" cy="120" r="1.6"/><circle cx="330" cy="80" r="1.2"/><circle cx="520" cy="170" r="1.4"/><circle cx="700" cy="90" r="1.2"/><circle cx="980" cy="140" r="1.6"/><circle cx="620" cy="330" r="1"/><circle cx="1000" cy="330" r="1.3"/><circle cx="430" cy="430" r="1"/><circle cx="90" cy="520" r="1.2"/></g>
    <circle cx="300" cy="250" r="152" fill="url(#sunGlow)"/>
    <circle cx="300" cy="250" r="76" fill="url(#sun)"/>
    <circle cx="300" cy="250" r="106" fill="none" stroke="#d6a46c" stroke-opacity="0.28"/>
    <circle cx="300" cy="250" r="137" fill="none" stroke="#d6a46c" stroke-opacity="0.14" stroke-dasharray="3 10"/>
    <path d="M -100 820 L 1180 820 L 1180 1350 L -100 1350 Z" fill="url(#ground)"/>
    <path d="M -100 820 L 1180 820 L 1180 834 L -100 834 Z" fill="#c9744f" fill-opacity="0.25"/>
    <path d="M 700 1170 C 700 1090, 850 940, 850 842" fill="none" stroke="#fbf7f0" stroke-width="40" stroke-linecap="round"/>
    <path d="M 850 842 L 650 847 L 500 842 L 370 847 L 255 842 L 150 847" fill="none" stroke="#fbf7f0" stroke-width="22" stroke-linecap="round" stroke-linejoin="round"/>
    <path d="M 700 1170 C 700 1090, 850 940, 850 842" fill="none" stroke="#b8582f" stroke-opacity="0.6" stroke-width="3" stroke-dasharray="2 14" stroke-linecap="round"/>
    <path d="M 850 842 L 650 847 L 500 842 L 370 847 L 255 842 L 150 847" fill="none" stroke="#b8582f" stroke-opacity="0.55" stroke-width="3" stroke-dasharray="2 14" stroke-linecap="round" stroke-linejoin="round"/>
    <g filter="url(#shadow)"><path d="M 755.0 820 v -195.0 a 95.0 95.0 0 0 1 190.0 0 v 195.0 z" fill="url(#wall)"/></g><path d="M 813.9 820 v -143.7 a 36.1 36.1 0 0 1 72.2 0 v 143.7 z" fill="url(#doorLightSoft)"/><g fill="#ecd2ab" fill-opacity="0.85"><rect x="777.8" y="640.2" width="17.1" height="27.4" rx="8.5"/><rect x="905.1" y="640.2" width="17.1" height="27.4" rx="8.5"/></g><g filter="url(#shadow)"><path d="M 591.0 820 v -121.0 a 59.0 59.0 0 0 1 118.0 0 v 121.0 z" fill="url(#wall)"/></g><path d="M 627.6 820 v -89.2 a 22.4 22.4 0 0 1 44.8 0 v 89.2 z" fill="url(#doorLightSoft)"/><g filter="url(#shadow)"><path d="M 448.0 820 v -108.0 a 52.0 52.0 0 0 1 104.0 0 v 108.0 z" fill="url(#wall)"/></g><path d="M 480.2 820 v -79.4 a 19.8 19.8 0 0 1 39.5 0 v 79.4 z" fill="url(#doorLightSoft)"/><g filter="url(#shadow)"><path d="M 324.0 820 v -96.0 a 46.0 46.0 0 0 1 92.0 0 v 96.0 z" fill="url(#wall)"/></g><path d="M 352.5 820 v -70.6 a 17.5 17.5 0 0 1 35.0 0 v 70.6 z" fill="url(#doorLightSoft)"/><g filter="url(#shadow)"><path d="M 214.0 820 v -87.0 a 41.0 41.0 0 0 1 82.0 0 v 87.0 z" fill="url(#wall)"/></g><path d="M 239.4 820 v -63.8 a 15.6 15.6 0 0 1 31.2 0 v 63.8 z" fill="url(#doorLightSoft)"/><g filter="url(#shadow)"><path d="M 113.0 820 v -79.0 a 37.0 37.0 0 0 1 74.0 0 v 79.0 z" fill="url(#wall)"/></g><path d="M 135.9 820 v -57.9 a 14.1 14.1 0 0 1 28.1 0 v 57.9 z" fill="url(#doorLightSoft)"/>
    <g fill="#d6a46c"><circle cx="850" cy="842" r="7"/><circle cx="650" cy="842" r="5"/><circle cx="500" cy="842" r="5"/><circle cx="370" cy="842" r="5"/><circle cx="255" cy="842" r="5"/><circle cx="150" cy="842" r="5"/></g>
    <g fill="#d6a46c" filter="url(#glow)" fill-opacity="0.6"><circle cx="850" cy="842" r="16"/><circle cx="650" cy="842" r="12"/><circle cx="500" cy="842" r="12"/><circle cx="370" cy="842" r="12"/><circle cx="255" cy="842" r="12"/><circle cx="150" cy="842" r="12"/></g>
    <ellipse cx="700" cy="1194.0" rx="150.0" ry="34.0" fill="#2a2230" fill-opacity="0.12"/>
    <circle cx="700" cy="1170" r="60.0" fill="#b8582f"/>
    <circle cx="700" cy="1170" r="60.0" fill="none" stroke="#d6a46c" stroke-width="3" stroke-opacity="0.9"/>
    <circle cx="700" cy="1170" r="84.0" fill="none" stroke="#d6a46c" stroke-opacity="0.5" stroke-width="2"/>
    <circle cx="700" cy="1170" r="108.0" fill="none" stroke="#d6a46c" stroke-opacity="0.22" stroke-dasharray="3 10"/>
    <circle cx="700" cy="1170" r="18.0" fill="#f1eadf"/>
    <circle cx="700" cy="1170" r="8.0" fill="#2a2230"/>
  </g>
</svg>
